<svg width="1200" height="300" viewBox="0 0 1200 300" fill="none" xmlns="http://www.w3.org/2000/svg">
  <defs>
    <linearGradient id="bg" x1="0" y1="0" x2="1200" y2="300" gradientUnits="userSpaceOnUse">
      <stop stop-color="#0B1220"/>
      <stop offset="1" stop-color="#111827"/>
    </linearGradient>
    <linearGradient id="accent" x1="120" y1="60" x2="520" y2="260" gradientUnits="userSpaceOnUse">
      <stop stop-color="#10B981"/>
      <stop offset="1" stop-color="#22D3EE"/>
    </linearGradient>
  </defs>

  <rect width="1200" height="300" rx="24" fill="url(#bg)"/>

  <!-- Stream / queue icon -->
  <rect x="84" y="82" width="200" height="136" rx="22" fill="#0F172A" stroke="#1F2937"/>

  <!-- stream lines -->
  <path d="M120 124h108" stroke="#94A3B8" stroke-width="8" stroke-linecap="round" opacity="0.75"/>
  <path d="M120 158h132" stroke="url(#accent)" stroke-width="10" stroke-linecap="round"/>
  <path d="M120 192h86" stroke="#94A3B8" stroke-width="8" stroke-linecap="round" opacity="0.65"/>

  <!-- arrow to telegram -->
  <path d="M244 158h18" stroke="#6B7280" stroke-width="6" stroke-linecap="round"/>
  <path d="M262 158l18-10v20l-18-10z" fill="#6B7280"/>

  <!-- paper plane hint -->
  <path d="M206 156l44-22-12 48-14-14-18 10 0-22z" fill="url(#accent)" opacity="0.9"/>

  <text x="320" y="140" fill="#E5E7EB" font-family="ui-sans-serif, system-ui, -apple-system, Segoe UI, Roboto" font-size="54" font-weight="800">Voyager Forwarder</text>
  <text x="320" y="190" fill="#9CA3AF" font-family="ui-sans-serif, system-ui, -apple-system, Segoe UI, Roboto" font-size="24">Cron worker: Redis Streams → Telegram</text>
  <text x="320" y="236" fill="#6B7280" font-family="ui-monospace, SFMono-Regular, Menlo, Monaco, Consolas" font-size="18">XREADGROUP · XAUTOCLAIM · grammY · 30s rate limit</text>

  <circle cx="1120" cy="70" r="2" fill="#93C5FD" opacity="0.7"/>
  <circle cx="1080" cy="110" r="1.5" fill="#FDE68A" opacity="0.6"/>
  <circle cx="1140" cy="150" r="1.5" fill="#C4B5FD" opacity="0.6"/>
  <circle cx="1050" cy="190" r="2" fill="#93C5FD" opacity="0.5"/>
</svg>
